SRRun01_grf
version=1
nRows=12
nColumns=19
inDegrees=no
endheader
time	ground_force_r_vx	ground_force_r_vy	ground_force_r_vz	ground_force_r_px	ground_force_r_py	ground_force_r_pz	ground_force_r_mx	ground_force_r_my	ground_force_r_mz	ground_force_l_vx	ground_force_l_vy	ground_force_l_vz	ground_force_l_px	ground_force_l_py	ground_force_l_pz	ground_force_l_mx	ground_force_l_my	ground_force_l_mz
    139.99600000	   -231.81228293	    883.11473460	      6.10420528	      1.00412780	      0.00000000	     -0.20118913	      0.00000346	     67.28803121	      0.00004102	      0.00000000	      0.00000000	      0.00000000	      0.00000000	      0.00000000	      0.00000000	      0.00000000	      0.00000000	      0.00000000
    139.99700000	   -195.05254143	    889.08626340	    -19.32892602	      0.99939239	      0.00000000	     -0.20437401	      0.00000514	     52.42527073	      0.00004188	      0.00000000	      0.00000000	      0.00000000	      0.00000000	      0.00000000	      0.00000000	      0.00000000	      0.00000000	      0.00000000
    139.99800000	   -160.48830550	    894.99892606	    -43.25550715	      0.99480917	      0.00000000	     -0.20740936	      0.00000661	     36.83862764	      0.00004266	      0.00000000	      0.00000000	      0.00000000	      0.00000000	      0.00000000	      0.00000000	      0.00000000	      0.00000000	      0.00000000
    139.99900000	   -129.48323358	    900.64798244	    -64.54544920	      0.99057210	      0.00000000	     -0.21017836	      0.00000784	     20.82252773	      0.00004326	      0.00000000	      0.00000000	      0.00000000	      0.00000000	      0.00000000	      0.00000000	      0.00000000	      0.00000000	      0.00000000
    140.00000000	   -103.24867806	    905.89256745	    -82.14928114	      0.98682535	      0.00000000	     -0.21256624	      0.00000880	      4.80652060	      0.00004360	      0.00000000	      0.00000000	      0.00000000	      0.00000000	      0.00000000	      0.00000000	      0.00000000	      0.00000000	      0.00000000
    140.00100000	    -82.75481849	    910.66941516	    -95.17333263	      0.98364989	      0.00000000	     -0.21446730	      0.00000948	    -10.64841849	      0.00004367	      0.00000000	      0.00000000	      0.00000000	      0.00000000	      0.00000000	      0.00000000	      0.00000000	      0.00000000	      0.00000000
    140.00200000	    -68.65500763	    914.99475727	   -102.94834642	      0.98105863	      0.00000000	     -0.21579276	      0.00000991	    -24.87530539	      0.00004348	      0.00000000	      0.00000000	      0.00000000	      0.00000000	      0.00000000	      0.00000000	      0.00000000	      0.00000000	      0.00000000
    140.00300000	    -61.23099398	    918.95522691	   -105.08566753	      0.97900051	      0.00000000	     -0.21647855	      0.00001010	    -37.14786117	      0.00004307	      0.00000000	      0.00000000	      0.00000000	      0.00000000	      0.00000000	      0.00000000	      0.00000000	      0.00000000	      0.00000000
    140.00400000	    -60.36537376	    922.69078936	   -101.51594662	      0.97737223	      0.00000000	     -0.21649186	      0.00001011	    -46.74469808	      0.00004253	      0.00000000	      0.00000000	      0.00000000	      0.00000000	      0.00000000	      0.00000000	      0.00000000	      0.00000000	      0.00000000
    140.00500000	    -65.54532128	    926.37392135	    -92.50678457	      0.97603489	      0.00000000	     -0.21583566	      0.00000999	    -53.02426537	      0.00004196	      0.00000000	      0.00000000	      0.00000000	      0.00000000	      0.00000000	      0.00000000	      0.00000000	      0.00000000	      0.00000000
    140.00600000	    -75.89864283	    930.18925806	    -78.65753032	      0.97483244	      0.00000000	     -0.21455073	      0.00000979	    -55.50182673	      0.00004145	      0.00000000	      0.00000000	      0.00000000	      0.00000000	      0.00000000	      0.00000000	      0.00000000	      0.00000000	      0.00000000
    140.00700000	    -90.25981578	    934.31683876	    -60.87113968	      0.97360942	      0.00000000	     -0.21271480	      0.00000957	    -53.91881815	      0.00004110	      0.00000000	      0.00000000	      0.00000000	      0.00000000	      0.00000000	      0.00000000	      0.00000000	      0.00000000	      0.00000000
